<svg width="16" height="16" viewBox="0 0 16 16" fill="none" xmlns="http://www.w3.org/2000/svg">
  <path d="M3 10H4C4.55228 10 5 10.4477 5 11V12C5 12.5523 4.55228 13 4 13H3C2.44772 13 2 12.5523 2 12V11C2 10.4477 2.44772 10 3 10Z" fill="#8080A0"/>
  <path d="M7 10H8C8.55228 10 9 10.4477 9 11V12C9 12.5523 8.55228 13 8 13H7C6.44772 13 6 12.5523 6 12V11C6 10.4477 6.44772 10 7 10Z" fill="#8080A0"/>
  <path d="M7 6H8C8.55228 6 9 6.44772 9 7V8C9 8.55228 8.55228 9 8 9H7C6.44772 9 6 8.55228 6 8V7C6 6.44772 6.44772 6 7 6Z" fill="#8080A0"/>
  <path d="M11 10h1c.6 0 1 .4 1 1v1c0 .6-.4 1-1 1h-1c-.6 0-1-.4-1-1v-1c0-.6.4-1 1-1" fill="#8080A0"/>
  <path d="M7 2H8C8.55228 2 9 2.44772 9 3V4C9 4.55228 8.55228 5 8 5H7C6.44772 5 6 4.55228 6 4V3C6 2.44772 6.44772 2 7 2Z" fill="#F5AA52"/>
  <path d="M3 2H4C4.55228 2 5 2.44772 5 3V4C5 4.55228 4.55228 5 4 5H3C2.44772 5 2 4.55228 2 4V3C2 2.44772 2.44772 2 3 2Z" fill="#F5AA52"/>
  <path d="M11 2H12C12.5523 2 13 2.44772 13 3V4C13 4.55228 12.5523 5 12 5H11C10.4477 5 10 4.55228 10 4V3C10 2.44772 10.4477 2 11 2Z" fill="#F5AA52"/>
  <path d="M11 6h1c.6 0 1 .4 1 1v1c0 .6-.4 1-1 1h-1c-.6 0-1-.4-1-1V7c0-.6.4-1 1-1"  fill="#F5AA52"/>
  <path d="M13.25 9C14.2165 9 15 9.7835 15 10.75V11.5L15.1025 11.5049C15.6067 11.5562 16 11.9823 16 12.5V14.5C16 15.3284 15.3284 16 14.5 16H11.5C10.6716 16 10 15.3284 10 14.5V12.5C10 11.9823 10.3933 11.5562 10.8975 11.5049L11 11.5V10.75C11 9.7835 11.7835 9 12.75 9H13.25ZM13 12.75C12.5858 12.75 12.25 13.0858 12.25 13.5C12.25 13.9142 12.5858 14.25 13 14.25C13.4142 14.25 13.75 13.9142 13.75 13.5C13.75 13.0858 13.4142 12.75 13 12.75ZM12.75 10C12.3358 10 12 10.3358 12 10.75V11.5H14V10.75C14 10.3358 13.6642 10 13.25 10H12.75Z" fill="#9595AC"/>
</svg>